# xmcd
#
# Track frame offsets: 
#        150
#        21570
#        41462
#        62650
#        80767
#        102100
#        123795
#        144005
#        163162
#        183982
#
# Disc length: 2710 seconds
#
# Revision: 0
# Processed by: cddbd v1.5.1PL0 Copyright (c) Steve Scherf et al.
# Submitted via: ExactAudioCopy v0.95a5
#
DISCID=7d0a940a
DTITLE=游鴻明 - 愛一回傷一回
DYEAR=1900
DGENRE=Pop
TTITLE0=愛一回傷一回
TTITLE1=你連笑起來都不快樂
TTITLE2=惹上寂寞
TTITLE3=越戀越真
TTITLE4=別放開你的手
TTITLE5=將心比心
TTITLE6=別說愛我
TTITLE7=我的心下著雪
TTITLE8=緣已盡情還在
TTITLE9=風雨中的朋友
EXTD=
EXTT0=
EXTT1=
EXTT2=
EXTT3=
EXTT4=
EXTT5=
EXTT6=
EXTT7=
EXTT8=
EXTT9=
PLAYORDER=
